<?xml version="1.0" encoding="utf-8"?>
<!-- Generated by IcoMoon.io -->
<!DOCTYPE svg PUBLIC "-//W3C//DTD SVG 1.1//EN" "http://www.w3.org/Graphics/SVG/1.1/DTD/svg11.dtd">
<svg version="1.1" xmlns="http://www.w3.org/2000/svg" xmlns:xlink="http://www.w3.org/1999/xlink" width="1352" height="32" viewBox="0 0 1352 32">
<svg id="icon-icons-05" width="32" height="32" viewBox="0 0 32 32" x="0" y="0">
<path fill="#444444" d="M16.009 4.27c-4.352 0-7.89 3.538-7.89 7.881 0 3.849 2.789 7.067 6.427 7.744v2.386h-2.066c-0.731 0-1.326 0.594-1.326 1.317 0 0.731 0.594 1.326 1.326 1.326h2.066v1.49c0 0.722 0.594 1.317 1.326 1.317s1.326-0.594 1.326-1.317v-1.49h2.167c0.731 0 1.326-0.594 1.326-1.326s-0.594-1.317-1.326-1.317h-2.167v-2.341c3.794-0.576 6.693-3.849 6.693-7.79-0.009-4.343-3.538-7.881-7.881-7.881v0zM16.009 17.39c-2.898 0-5.239-2.35-5.239-5.239s2.35-5.239 5.239-5.239c2.889 0 5.239 2.35 5.239 5.239-0.009 2.889-2.35 5.239-5.239 5.239v0z"></path>
</svg>
<svg id="icon-icons-06" width="32" height="32" viewBox="0 0 32 32" x="132" y="0">
<path fill="#444444" d="M25.298 6.793c-0.009-0.009-0.018-0.009-0.018-0.018-0.311-0.302-0.741-0.43-1.134-0.357l-4.617 0.055c-0.731 0.009-1.307 0.613-1.307 1.344 0.009 0.722 0.567 1.271 1.344 1.307l1.545-0.018-2.267 2.267c-1.344-0.987-2.962-1.536-4.663-1.536-2.103 0-4.087 0.823-5.577 2.313-3.072 3.072-3.072 8.073 0 11.145 1.49 1.49 3.474 2.313 5.577 2.313s4.087-0.814 5.577-2.313c2.715-2.725 3.035-6.958 0.933-10.030l2.368-2.368v1.728c0 0.722 0.594 1.317 1.326 1.317s1.326-0.594 1.326-1.317v-4.891c-0.009-0.357-0.155-0.686-0.411-0.942v0zM17.883 21.422c-1.984 1.984-5.431 1.984-7.415 0-2.048-2.039-2.048-5.367 0-7.406 0.987-0.987 2.304-1.536 3.703-1.536s2.715 0.539 3.703 1.536c2.048 2.039 2.048 5.367 0.009 7.406v0z"></path>
</svg>
<svg id="icon-icons-07" width="32" height="32" viewBox="0 0 32 32" x="264" y="0">
<path fill="#444444" d="M6.757 17.243c-0.32 1.627 0.713 3.227 2.341 3.575 1.646 0.357 3.273-0.695 3.621-2.331l0.503-4.59c-1.646-0.896-1.042 2.807-3.877 2.194-1.957-0.43-2.487 0.823-2.587 1.152v0z"></path>
<path fill="#444444" d="M27.858 22.747c-0.128-0.384-0.549-0.594-0.933-0.466l-2.048 0.677-1.289-3.867c1.061-0.521 1.92-1.344 2.459-2.414 0.649-1.298 0.759-2.77 0.274-4.206l-3.365-7.771-8.942 2.971 0.594 2.432-7.634-1.655-2.523 8.155c-0.302 1.417-0.046 2.871 0.741 4.087 0.649 1.006 1.6 1.737 2.706 2.139l-0.859 3.986-2.103-0.457c-0.393-0.082-0.786 0.165-0.878 0.567-0.082 0.402 0.165 0.786 0.567 0.878l2.816 0.613c0 0 0 0 0 0s0.009 0 0.009 0l2.816 0.613c0.055 0.009 0.101 0.018 0.155 0.018 0.338 0 0.64-0.238 0.722-0.585 0.082-0.402-0.165-0.786-0.567-0.878l-2.103-0.457 0.859-3.968c0.137 0.009 0.283 0.027 0.421 0.027 2.533 0 4.754-1.801 5.303-4.334l0.594-4.48 0.393 1.591c0.741 2.222 2.807 3.712 5.147 3.712 0.338 0 0.667-0.037 0.997-0.101l1.28 3.858-2.039 0.677c-0.384 0.128-0.594 0.549-0.466 0.933 0.101 0.311 0.393 0.503 0.695 0.503 0.073 0 0.155-0.009 0.229-0.037l5.486-1.829c0.402-0.128 0.613-0.549 0.485-0.933v0zM13.623 18.587c-0.448 2.085-2.597 3.474-4.699 3.026v0c-1.033-0.219-1.911-0.832-2.487-1.719-0.567-0.887-0.768-1.947-0.558-2.917l2.103-6.802 6.565 1.417-0.923 6.994zM17.472 15.552l-1.701-6.912 6.373-2.121 2.807 6.473c0.329 1.006 0.256 2.075-0.219 3.017s-1.289 1.646-2.286 1.975c-0.402 0.137-0.823 0.201-1.253 0.201-1.691 0.009-3.2-1.079-3.721-2.633v0z"></path>
<path fill="#444444" d="M24.137 13.413c-0.146-0.311-0.805-1.499-2.697-0.869-2.761 0.914-2.56-2.825-4.096-1.755l0.987 4.507c0.53 1.591 2.258 2.459 3.858 1.929 1.582-0.53 2.441-2.231 1.947-3.813v0z"></path>
<path fill="#444444" d="M11.447 4.581c0.457-0.027 0.814-0.421 0.786-0.878s-0.421-0.814-0.878-0.786c-0.457 0.027-0.814 0.421-0.786 0.878s0.421 0.805 0.878 0.786v0z"></path>
<path fill="#444444" d="M14.665 6.034c0.457-0.027 0.814-0.421 0.786-0.878s-0.421-0.814-0.878-0.786c-0.457 0.027-0.814 0.421-0.786 0.878s0.421 0.814 0.878 0.786v0z"></path>
<path fill="#444444" d="M10.981 6.729c0.027 0.457 0.421 0.814 0.878 0.786s0.814-0.421 0.786-0.878c-0.027-0.457-0.421-0.814-0.878-0.786s-0.805 0.421-0.786 0.878v0z"></path>
</svg>
<svg id="icon-icons-08" width="32" height="32" viewBox="0 0 32 32" x="396" y="0">
<path fill="#444444" d="M17.573 4.581c0.457-0.027 0.814-0.421 0.786-0.878s-0.421-0.814-0.878-0.786c-0.457 0.027-0.814 0.421-0.786 0.878s0.421 0.805 0.878 0.786v0z"></path>
<path fill="#444444" d="M20.791 6.034c0.457-0.027 0.814-0.421 0.786-0.878s-0.421-0.814-0.878-0.786c-0.457 0.027-0.814 0.421-0.786 0.878s0.421 0.814 0.878 0.786v0z"></path>
<path fill="#444444" d="M17.106 6.729c0.027 0.457 0.421 0.814 0.878 0.786s0.814-0.421 0.786-0.878c-0.027-0.457-0.421-0.814-0.878-0.786s-0.805 0.421-0.786 0.878v0z"></path>
<path fill="#444444" d="M15.013 20.818c1.646 0.357 3.273-0.695 3.621-2.331l0.503-4.59c-1.646-0.896-1.042 2.807-3.877 2.194-1.947-0.421-2.478 0.823-2.587 1.152-0.32 1.627 0.713 3.218 2.341 3.575z"></path>
<path fill="#444444" d="M10.368 16.603c-0.302 1.417-0.046 2.871 0.741 4.087 0.649 1.006 1.6 1.737 2.706 2.139l-0.859 3.986-2.103-0.457c-0.393-0.082-0.786 0.165-0.878 0.567-0.082 0.402 0.165 0.786 0.567 0.878l2.816 0.613c0 0 0 0 0 0s0.009 0 0.009 0l2.816 0.613c0.055 0.009 0.101 0.018 0.155 0.018 0.338 0 0.64-0.238 0.722-0.585 0.082-0.402-0.165-0.786-0.567-0.878l-2.103-0.457 0.859-3.968c0.137 0.009 0.283 0.027 0.421 0.027 2.533 0 4.754-1.801 5.303-4.334l1.051-8.375-9.134-2.030-2.523 8.155zM20.462 11.593l-0.933 6.994c-0.448 2.085-2.597 3.474-4.699 3.026v0c-1.033-0.219-1.911-0.832-2.487-1.719-0.567-0.887-0.768-1.947-0.558-2.917l2.103-6.802 6.574 1.417z"></path>
</svg>
<svg id="icon-icons-09" width="32" height="32" viewBox="0 0 32 32" x="528" y="0">
<path fill="rgb(0, 0, 0)" d="M9.819 20.315c0.082 2.423 2.953 2.249 3.054 2.066 0.091-0.174 0.384-0.302 0.366-0.174-0.009 0.119 0.137 0.238 0.137 0.238s4.251 0.293 4.251-0.439c0-0.731-0.603-0.64-0.366-0.731 0.229-0.091 0.585-0.631 0.585-0.631s-0.046 1.271-0.073 1.344c-0.192 0.585 1.838 0.576 1.838 0.146 0-0.421-0.503-0.549-0.503-0.549s0.137-4.983-0.055-5.202c-0.192-0.219-0.082-0.466-0.082-0.466 1.929-1.335 1.061-2.917 1.061-3.319 0-0.411 0.192-3.154-0.274-3.154s-1.335 1.225-1.582 1.691c-0.027-0.027-0.064-0.046-0.101-0.064-0.448-0.21-1.417 0.064-1.417 0.064-0.329-0.274-2.395-1.499-2.752-1.143-0.521 0.494 1.115 3.191 1.115 3.191-0.247 2.286 1.198 2.752 1.198 2.752s-0.082 0.814-1.472 1.637c-1.774 0.841-2.121 1.957-2.149 2.395s0.302 1.637-1.143 1.17c-1.445-0.466-1.006-1.637-1.006-1.637-0.576 0.201-0.631 0.814-0.631 0.814v0z"></path>
<path fill="rgb(0, 0, 0)" d="M15.973 4.919c-6.080 0-11.063 4.928-11.063 11.063 0 6.126 4.928 11.109 11.063 11.109 6.126 0 11.109-4.983 11.109-11.109 0-6.135-4.974-11.063-11.109-11.063zM16.027 25.17c-5.074 0-9.189-4.114-9.189-9.189 0-5.029 4.069-9.143 9.143-9.143s9.189 4.114 9.189 9.143c0 5.074-4.114 9.189-9.143 9.189z"></path>
<path fill="rgb(0, 0, 0)" d="M24.137 22.755l-1.681 1.681-14.591-14.591 1.681-1.681 14.591 14.591z"></path>
<path fill="rgb(255, 255, 255)" d="M9.545 8.485l14.263 14.263-1.353 1.353-14.263-14.263 1.353-1.353zM9.545 7.845l-0.32 0.32-1.362 1.353-0.32 0.32 14.903 14.903 1.993-1.993-14.894-14.903z"></path>
<path fill="rgb(0, 0, 0)" d="M15.973 6.839c2.459 0 4.763 0.951 6.501 2.67 1.737 1.728 2.688 4.023 2.688 6.464 0 5.065-4.123 9.189-9.189 9.189-2.45 0-4.745-0.951-6.464-2.688-1.728-1.737-2.67-4.041-2.67-6.501 0-5.038 4.096-9.134 9.134-9.134zM15.973 4.919c-6.080 0-11.063 4.928-11.063 11.063 0 6.126 4.928 11.109 11.063 11.109 6.126 0 11.109-4.983 11.109-11.109 0-6.135-4.974-11.063-11.109-11.063v0z"></path>
</svg>
<svg id="icon-icons-10" width="32" height="32" viewBox="0 0 32 32" x="660" y="0">
<path fill="#444444" d="M15.973 4.919c-6.080 0-11.063 4.928-11.063 11.063 0 6.126 4.928 11.109 11.063 11.109 6.126 0 11.109-4.983 11.109-11.109 0-6.135-4.974-11.063-11.109-11.063zM16.027 25.17c-5.074 0-9.189-4.114-9.189-9.189 0-5.029 4.069-9.143 9.143-9.143s9.189 4.114 9.189 9.143c0 5.074-4.114 9.189-9.143 9.189z"></path>
<path fill="#444444" d="M15.945 6.839c2.459 0 4.763 0.951 6.501 2.67 1.737 1.728 2.688 4.023 2.688 6.464 0 5.065-4.123 9.189-9.189 9.189-2.45 0-4.745-0.951-6.464-2.688-1.728-1.737-2.67-4.041-2.67-6.501 0-5.038 4.096-9.134 9.134-9.134zM15.945 4.919c-6.080 0-11.063 4.928-11.063 11.063 0 6.126 4.928 11.109 11.063 11.109 6.126 0 11.109-4.983 11.109-11.109 0-6.135-4.983-11.063-11.109-11.063v0z"></path>
<path fill="#444444" d="M9.819 20.315c0.082 2.423 2.953 2.249 3.054 2.066 0.091-0.174 0.384-0.302 0.366-0.174-0.009 0.119 0.137 0.238 0.137 0.238s4.251 0.293 4.251-0.439c0-0.731-0.603-0.64-0.366-0.731 0.229-0.091 0.585-0.631 0.585-0.631s-0.046 1.271-0.073 1.344c-0.192 0.585 1.838 0.576 1.838 0.146 0-0.421-0.503-0.549-0.503-0.549s0.137-4.983-0.055-5.202c-0.192-0.219-0.082-0.466-0.082-0.466 1.929-1.335 1.061-2.917 1.061-3.319 0-0.411 0.192-3.154-0.274-3.154s-1.335 1.225-1.582 1.691c-0.027-0.027-0.064-0.046-0.101-0.064-0.448-0.21-1.417 0.064-1.417 0.064-0.329-0.274-2.395-1.499-2.752-1.143-0.521 0.494 1.115 3.191 1.115 3.191-0.247 2.286 1.198 2.752 1.198 2.752s-0.082 0.814-1.472 1.637c-1.774 0.841-2.121 1.957-2.149 2.395s0.302 1.637-1.143 1.17c-1.445-0.466-1.006-1.637-1.006-1.637-0.576 0.201-0.631 0.814-0.631 0.814v0z"></path>
</svg>
<svg id="icon-icons-01" width="32" height="32" viewBox="0 0 32 32" x="792" y="0">
<path fill="#444444" d="M9.39 14.455c-0.256 0-0.475 0.21-0.475 0.466v2.213c0 0.256 0.219 0.466 0.475 0.466h5.394l-3.154-3.145h-2.24z"></path>
<path fill="#444444" d="M19.922 17.097v-2.642h-2.651l2.651 2.642z"></path>
<path fill="#444444" d="M22.373 14.455h-1.819v3.145h1.819c0.256 0 0.457-0.21 0.457-0.466v-2.213c0-0.256-0.201-0.466-0.457-0.466v0z"></path>
<path fill="#444444" d="M24.082 7.918c-1.051-1.051-2.277-1.874-3.639-2.45-1.408-0.594-2.907-0.896-4.453-0.896s-3.045 0.302-4.453 0.896c-1.353 0.576-2.578 1.399-3.621 2.45-1.051 1.042-1.874 2.267-2.45 3.63-0.594 1.408-0.896 2.907-0.896 4.453s0.302 3.045 0.896 4.453c0.576 1.362 1.399 2.587 2.45 3.639s2.277 1.874 3.639 2.45c1.408 0.594 2.907 0.896 4.453 0.896s3.045-0.302 4.453-0.896c1.362-0.576 2.587-1.399 3.639-2.45s1.874-2.277 2.45-3.639c0.594-1.408 0.896-2.907 0.896-4.453s-0.302-3.045-0.896-4.453c-0.594-1.362-1.417-2.578-2.469-3.63v0zM16 25.088c-2.432 0-4.709-0.942-6.427-2.661-1.71-1.719-2.661-3.995-2.661-6.427 0-2.030 0.658-3.959 1.883-5.541l12.745 12.745c-1.582 1.216-3.511 1.883-5.541 1.883v0zM23.205 21.541l-12.745-12.745c1.582-1.225 3.511-1.883 5.541-1.883 2.432 0 4.709 0.942 6.427 2.661 1.71 1.719 2.661 3.995 2.661 6.427 0 2.030-0.667 3.959-1.883 5.541v0z"></path>
<path fill="#444444" d="M21.193 13.522c0.21 0.128 0.402 0.256 0.594 0.411 0.073 0.064 0.192 0.027 0.219-0.064 0.009-0.018 0.009-0.037 0.018-0.037 0.155-0.622-0.11-1.28-0.512-1.755-0.402-0.466-0.951-0.786-1.518-1.033-0.302-0.128-0.603-0.247-0.905-0.357-0.283-0.11-0.603-0.201-0.859-0.357-0.082-0.055-0.192 0-0.21 0.101 0 0.009-0.009 0.073-0.009 0.091 0.009 0.549 0.338 1.061 0.713 1.435 0.366 0.384 0.823 0.677 1.28 0.923 0.037 0.018 0.064 0.037 0.101 0.055 0.366 0.192 0.741 0.375 1.088 0.585v0z"></path>
</svg>
<svg id="icon-icons-02" width="32" height="32" viewBox="0 0 32 32" x="924" y="0">
<path fill="rgb(0, 0, 0)" d="M24 8c-1.042-1.042-2.249-1.856-3.593-2.423-1.399-0.594-2.88-0.887-4.407-0.887s-3.008 0.302-4.407 0.887c-1.344 0.567-2.56 1.381-3.593 2.423-1.042 1.033-1.856 2.249-2.423 3.593-0.594 1.399-0.887 2.88-0.887 4.407s0.302 3.008 0.887 4.407c0.567 1.344 1.381 2.56 2.423 3.593 1.042 1.042 2.249 1.856 3.593 2.423 1.399 0.594 2.88 0.887 4.407 0.887s3.008-0.302 4.407-0.887c1.344-0.567 2.56-1.381 3.593-2.423 1.042-1.042 1.856-2.249 2.423-3.593 0.594-1.399 0.887-2.88 0.887-4.407s-0.302-3.008-0.887-4.407c-0.567-1.344-1.381-2.551-2.423-3.593v0z"></path>
<path fill="rgb(255, 255, 255)" d="M22.464 9.536c-0.841-0.841-1.819-1.499-2.907-1.957-1.125-0.475-2.322-0.722-3.557-0.722s-2.432 0.238-3.557 0.722c-1.088 0.457-2.066 1.115-2.907 1.957s-1.499 1.819-1.957 2.907c-0.475 1.125-0.722 2.322-0.722 3.557s0.238 2.432 0.722 3.557c0.457 1.088 1.115 2.066 1.957 2.907s1.819 1.499 2.907 1.957c1.125 0.475 2.322 0.722 3.557 0.722s2.432-0.238 3.557-0.722c1.088-0.457 2.066-1.115 2.907-1.957s1.499-1.819 1.957-2.907c0.475-1.125 0.722-2.322 0.722-3.557s-0.238-2.432-0.722-3.557c-0.457-1.088-1.115-2.066-1.957-2.907v0z"></path>
<path fill="rgb(0, 0, 0)" d="M22.574 14.473h-1.783v3.109h1.783c0.256 0 0.439-0.192 0.439-0.448v-2.213c-0.009-0.256-0.183-0.448-0.439-0.448v0z"></path>
<path fill="rgb(0, 0, 0)" d="M21.394 13.522c0.21 0.128 0.402 0.256 0.594 0.411 0.073 0.064 0.192 0.027 0.219-0.064 0.009-0.018 0.009-0.037 0.018-0.037 0.155-0.622-0.11-1.28-0.512-1.755-0.402-0.466-0.951-0.786-1.518-1.033-0.302-0.128-0.603-0.247-0.905-0.357-0.283-0.11-0.603-0.201-0.859-0.357-0.082-0.055-0.192 0-0.21 0.101 0 0.009-0.009 0.073-0.009 0.091 0.009 0.549 0.338 1.061 0.713 1.435 0.366 0.384 0.823 0.677 1.28 0.923 0.037 0.018 0.064 0.037 0.101 0.055 0.366 0.192 0.731 0.375 1.088 0.585v0z"></path>
<path fill="rgb(0, 0, 0)" d="M11.831 14.473h-2.249c-0.256 0-0.503 0.183-0.503 0.448v2.213c0 0.256 0.247 0.448 0.503 0.448h10.533v-3.109h-8.283z"></path>
</svg>
<svg id="icon-icons-03" width="32" height="32" viewBox="0 0 32 32" x="1056" y="0">
<path fill="#444444" d="M20.416 8.384c1.042 0 2.021-0.594 2.496-1.518 0.485-0.933 0.393-2.103-0.219-2.953-0.622-0.85-1.682-1.289-2.715-1.125-1.015 0.165-1.883 0.896-2.222 1.874-0.338 0.997-0.073 2.13 0.667 2.88 0.521 0.53 1.243 0.841 1.993 0.841v0z"></path>
<path fill="#444444" d="M25.691 16.786c0 0.009 0 0 0-0.018 0-0.101 0-0.064 0-0.018-0.009-0.311-0.027-0.613-0.046-0.923-0.018-0.183-0.037-0.375-0.055-0.558-0.064-0.494-0.155-0.978-0.256-1.463-0.037-0.146-0.073-0.293-0.119-0.439s-0.091-0.293-0.137-0.439c-0.137-0.366-0.283-0.649-0.448-0.997-0.11-0.21-0.219-0.411-0.338-0.613-0.594-0.923-1.381-1.728-2.377-2.222-0.695-0.347-1.902-0.594-2.99-0.009-1.189 0.64-2.149 1.655-2.77 2.834-0.521-1.307-1.426-2.469-2.688-3.127-0.183-0.091-0.375-0.183-0.567-0.247-0.887-0.311-1.966-0.32-2.935 0.091-0.274 0.119-0.539 0.256-0.786 0.421-0.594 0.393-1.097 0.905-1.499 1.481-0.823 1.189-1.207 2.624-1.335 4.050-0.101 1.097-0.046 2.213 0.091 3.31v0.009c0.055 0.43 0.457 0.75 0.887 0.713 0.439-0.037 0.777-0.421 0.759-0.859-0.009 0-0.018-0.594-0.018-0.658 0-0.329 0.009-0.667 0.027-0.997 0.046-0.713 0.146-1.435 0.338-2.13 0.137-0.494 0.32-0.978 0.567-1.426l-0.613 5.029c-0.091 0.768 0.091 1.545 0.53 2.176l0.43 9.024c0.027 0.503 0.457 0.923 0.969 0.914 0.503 0 0.933-0.411 0.96-0.923l0.302-6.821 0.32 6.821c0.027 0.503 0.457 0.923 0.969 0.914 0.503 0 0.933-0.411 0.96-0.914l0.411-9.061c0.402-0.613 0.603-1.362 0.512-2.149l-0.603-4.965c0.667 1.234 0.869 2.697 0.896 4.087-0.009 0.329-0.009 1.061-0.009 1.061 0.009 0.448 0.311 0.814 0.741 0.859 0.466 0.046 0.896-0.302 0.933-0.768v-0.027c0.018-0.183 0.027-0.375 0.046-0.558 0.046-0.357 0.091-0.713 0.146-1.070 0.137-0.704 0.302-1.39 0.567-2.057 0.046-0.11 0.091-0.229 0.146-0.338v0.786l-1.481 7.406c-0.027 0.146 0.009 0.302 0.11 0.421s0.238 0.183 0.393 0.183h1.17l0.293 6.135c0.027 0.512 0.457 0.923 0.969 0.923s0.951-0.411 0.978-0.923l0.32-6.135h0.119l0.293 6.135c0.027 0.512 0.457 0.923 0.969 0.923s0.951-0.411 0.978-0.923l0.32-6.135h1.152c0.155 0 0.293-0.064 0.393-0.183s0.137-0.274 0.11-0.421l-1.481-7.515v-0.631c0.027 0.055 0.046 0.119 0.073 0.174 0.046 0.119 0.082 0.229 0.128 0.347 0.128 0.402 0.238 0.805 0.329 1.207 0.027 0.165 0.064 0.32 0.091 0.485 0.082 0.539 0.146 1.070 0.183 1.609v0.037c0.037 0.439 0.43 0.786 0.869 0.759 0.439-0.018 0.786-0.393 0.795-0.823 0.018-0.283 0.018-0.567 0.009-0.841v0z"></path>
<path fill="#444444" d="M9.71 7.141c0.512 0.457 1.179 0.713 1.865 0.713 1.042 0 2.011-0.603 2.487-1.527 0.475-0.942 0.366-2.103-0.274-2.944-0.64-0.832-1.719-1.243-2.752-1.042-1.015 0.201-1.847 0.969-2.13 1.966-0.293 1.015 0.027 2.13 0.805 2.834v0z"></path>
</svg>
<svg id="icon-icons-04" width="32" height="32" viewBox="0 0 32 32" x="1188" y="0">
<path fill="#444444" d="M9.655 7.287c0.503 0.448 1.161 0.704 1.829 0.704 1.024 0 1.984-0.594 2.441-1.499 0.466-0.923 0.357-2.066-0.265-2.889-0.631-0.823-1.691-1.225-2.706-1.024-0.997 0.192-1.819 0.951-2.103 1.929-0.274 0.987 0.037 2.085 0.805 2.779z"></path>
<path fill="#444444" d="M20.517 7.991c0.677 0 1.335-0.256 1.829-0.704 0.768-0.695 1.079-1.792 0.795-2.789-0.283-0.978-1.106-1.737-2.103-1.929-1.015-0.201-2.075 0.201-2.706 1.024s-0.741 1.966-0.265 2.889c0.466 0.914 1.426 1.509 2.45 1.509z"></path>
<path fill="#444444" d="M25.646 14.61c-0.128-1.408-0.503-2.816-1.317-3.986-0.393-0.576-0.896-1.079-1.472-1.463-0.247-0.165-0.503-0.302-0.768-0.421-0.951-0.402-2.011-0.402-2.889-0.091-0.192 0.064-0.375 0.146-0.558 0.247-1.243 0.649-2.13 1.792-2.642 3.081-0.512-1.28-1.408-2.432-2.642-3.081-0.183-0.091-0.366-0.174-0.558-0.247-0.878-0.311-1.938-0.311-2.889 0.091-0.265 0.11-0.53 0.256-0.768 0.421-0.585 0.384-1.079 0.887-1.472 1.463-0.814 1.17-1.189 2.587-1.317 3.986-0.091 1.079-0.046 2.176 0.091 3.255v0.009c0.055 0.421 0.448 0.741 0.878 0.704s0.759-0.421 0.741-0.85c-0.009 0-0.009-0.585-0.009-0.649 0-0.329 0.009-0.658 0.027-0.978 0.046-0.704 0.146-1.408 0.329-2.094 0.137-0.485 0.311-0.96 0.558-1.399l-0.603 4.946c-0.082 0.75 0.091 1.518 0.521 2.149l0.421 8.878c0.027 0.503 0.448 0.905 0.951 0.905 0.494 0 0.914-0.411 0.942-0.905l0.302-6.711 0.311 6.711c0.027 0.503 0.448 0.905 0.951 0.905 0.494 0 0.923-0.402 0.942-0.905l0.402-8.914c0.402-0.603 0.594-1.344 0.503-2.112l-0.594-4.882c0.658 1.216 0.85 2.651 0.878 4.023-0.009 0.32-0.009 1.042-0.009 1.042 0.009 0.347 0.201 0.649 0.494 0.777v0c0 0 0.009 0 0.009 0.009 0.046 0.018 0.091 0.037 0.137 0.046 0.055 0.009 0.11 0.027 0.155 0.027 0.128 0 0.311-0.073 0.311-0.073s0.183 0.073 0.311 0.073c0.046 0 0.11-0.009 0.155-0.027 0.046-0.009 0.101-0.027 0.137-0.046 0.009 0 0.009-0.009 0.009-0.009v0c0.293-0.128 0.475-0.43 0.494-0.777 0 0 0-0.722-0.009-1.042 0.027-1.371 0.219-2.807 0.878-4.023l-0.594 4.882c-0.091 0.768 0.101 1.509 0.503 2.112l0.402 8.914c0.018 0.494 0.448 0.905 0.942 0.905 0.503 0 0.923-0.402 0.951-0.905l0.311-6.711 0.302 6.711c0.018 0.494 0.439 0.905 0.942 0.905s0.923-0.402 0.951-0.905l0.421-8.878c0.43-0.631 0.603-1.39 0.521-2.149l-0.594-4.946c0.247 0.439 0.43 0.914 0.558 1.399 0.183 0.686 0.283 1.39 0.329 2.094 0.018 0.329 0.027 0.649 0.027 0.978 0 0.064-0.009 0.649-0.009 0.649-0.018 0.43 0.311 0.814 0.741 0.85s0.814-0.274 0.878-0.704v-0.009c0.155-1.070 0.201-2.167 0.101-3.255z"></path>
</svg>
</svg>
